<?xml version="1.0" encoding="utf-8"?>
<!-- Generator: Adobe Illustrator 19.1.0, SVG Export Plug-In . SVG Version: 6.00 Build 0)  -->
<!DOCTYPE svg PUBLIC "-//W3C//DTD SVG 1.1//EN" "http://www.w3.org/Graphics/SVG/1.1/DTD/svg11.dtd">
<svg version="1.1" id="Layer_1" xmlns="http://www.w3.org/2000/svg" xmlns:xlink="http://www.w3.org/1999/xlink" x="0px" y="0px"
	 viewBox="0 0 20.6 20.6" style="enable-background:new 0 0 20.6 20.6;" xml:space="preserve">
<style type="text/css">
	.st0{fill:#EF3E42;}
	.st1{fill:#FFFFFF;}
</style>
<g>
	<path class="st0" d="M10.3,20.6C4.6,20.6,0,16,0,10.3S4.6,0,10.3,0s10.3,4.6,10.3,10.3S16,20.6,10.3,20.6"/>
	<path class="st1" d="M6.8,13.7c1.6-1,4.7-3.4,4.7-5.5c0-0.8-0.3-1.5-1.3-1.5C9.1,6.7,8.7,7.5,8.7,9l-2-0.1c0-2.4,1.1-4.1,3.6-4.1
		c2,0,3.3,1.3,3.3,3.3c0,2.7-2.4,4.1-4.2,5.6h4.4v1.7H6.8V13.7"/>
</g>
</svg>
