<?xml version="1.0" encoding="utf-8"?>
<!-- Generator: Adobe Illustrator 19.1.0, SVG Export Plug-In . SVG Version: 6.00 Build 0)  -->
<!DOCTYPE svg PUBLIC "-//W3C//DTD SVG 1.1//EN" "http://www.w3.org/Graphics/SVG/1.1/DTD/svg11.dtd">
<svg version="1.1" id="Layer_1" xmlns="http://www.w3.org/2000/svg" xmlns:xlink="http://www.w3.org/1999/xlink" x="0px" y="0px"
	 viewBox="0 0 20.6 20.6" style="enable-background:new 0 0 20.6 20.6;" xml:space="preserve">
<style type="text/css">
	.st0{fill:#006BB6;}
	.st1{fill:#FFFFFF;}
</style>
<g>
	<path class="st0" d="M10.3,20.6C4.6,20.6,0,16,0,10.3C0,4.6,4.6,0,10.3,0s10.3,4.6,10.3,10.3C20.6,16,16,20.6,10.3,20.6"/>
	<path class="st1" d="M5.5,10.2c0-2.9,1.9-5.5,5-5.5c2.1,0,3.7,1.1,4.3,3.4l-2.1,0.5c-0.2-1.2-1.1-1.9-2.2-1.9c-2,0-2.8,1.7-2.8,3.5
		c0,1.8,0.8,3.5,2.8,3.5c1.3,0,2-0.8,2.4-2.1l2,0.9c-0.9,2.2-2.3,3.2-4.4,3.2C7.1,15.7,5.5,13.1,5.5,10.2"/>
</g>
</svg>
