<?xml version="1.0" encoding="UTF-8" standalone="no"?>
<!-- Created with Inkscape (http://www.inkscape.org/) -->

<svg
   xmlns:dc="http://purl.org/dc/elements/1.1/"
   xmlns:cc="http://creativecommons.org/ns#"
   xmlns:rdf="http://www.w3.org/1999/02/22-rdf-syntax-ns#"
   xmlns:svg="http://www.w3.org/2000/svg"
   xmlns="http://www.w3.org/2000/svg"
   xmlns:inkscape="http://www.inkscape.org/namespaces/inkscape"
   version="1.0"
   width="74.900002"
   height="74.900002"
   viewBox="0 0 74.9 74.9"
   id="svg3310"
   xml:space="preserve"><defs
   id="defs9" /><metadata
   id="metadata10"><rdf:RDF><cc:Work
       rdf:about=""><dc:format>image/svg+xml</dc:format><dc:type
         rdf:resource="http://purl.org/dc/dcmitype/StillImage" /><dc:title /></cc:Work></rdf:RDF></metadata>
<circle
   cx="36.972"
   cy="37.450001"
   r="28.563"
   transform="translate(0.478,-7.6294e-7)"
   id="circle"
   style="fill:#e00034" />
<g
   id="routenum"
   style="fill:#ffffff"><path
     d="m 29.857,34.996 c -1e-6,-1.276 0.143,-2.442 0.429,-3.498 0.308,-1.078 0.77,-1.991 1.386,-2.739 0.638,-0.76998 1.441,-1.364 2.409,-1.782 0.96799,-0.43998 2.134,-0.65998 3.498,-0.66 1.056,2.3e-5 2.024,0.16502 2.904,0.495 0.87999,0.33002 1.628,0.80302 2.244,1.419 0.63798,0.59402 1.122,1.32 1.452,2.178 0.35198,0.85802 0.52798,1.815 0.528,2.871 -1.6e-5,1.474 -0.30802,2.794 -0.924,3.96 -0.59402,1.144 -1.353,2.2 -2.277,3.168 -0.92401,0.96801 -1.936,1.881 -3.036,2.739 -1.1,0.836 -2.145,1.672 -3.135,2.508 h 9.702 v 3.498 h -15.18 v -3.498 c 0.528,-0.33 1.144,-0.737 1.848,-1.221 0.726,-0.506 1.463,-1.067 2.211,-1.683 0.76999,-0.63799 1.518,-1.32 2.244,-2.046 0.74799,-0.72599 1.408,-1.474 1.98,-2.244 0.59399,-0.79199 1.067,-1.595 1.419,-2.409 0.35199,-0.81399 0.52799,-1.617 0.528,-2.409 -1.2e-5,-0.43998 -0.04401,-0.86898 -0.132,-1.287 -0.08801,-0.41798 -0.24201,-0.78098 -0.462,-1.089 -0.22001,-0.32998 -0.52801,-0.58298 -0.924,-0.759 -0.39601,-0.19798 -0.89101,-0.29698 -1.485,-0.297 -0.61601,1.9e-5 -1.133,0.12102 -1.551,0.363 -0.39601,0.24202 -0.72601,0.58302 -0.99,1.023 -0.24201,0.44002 -0.41801,0.97902 -0.528,1.617 -0.088,0.61602 -0.132,1.309 -0.132,2.079 l -4.026,-0.297"
     inkscape:connector-curvature="0"
     id="path2985"
     style="fill:#ffffff" /></g>
</svg>