<?xml version="1.0" encoding="UTF-8" standalone="no"?>
<!-- Created with Inkscape (http://www.inkscape.org/) -->

<svg
   xmlns:dc="http://purl.org/dc/elements/1.1/"
   xmlns:cc="http://creativecommons.org/ns#"
   xmlns:rdf="http://www.w3.org/1999/02/22-rdf-syntax-ns#"
   xmlns:svg="http://www.w3.org/2000/svg"
   xmlns="http://www.w3.org/2000/svg"
   xmlns:sodipodi="http://sodipodi.sourceforge.net/DTD/sodipodi-0.dtd"
   xmlns:inkscape="http://www.inkscape.org/namespaces/inkscape"
   width="210mm"
   height="297mm"
   viewBox="0 0 210 297"
   version="1.1"
   id="svg8"
   sodipodi:docname="Logo.svg"
   inkscape:version="0.92.4 (5da689c313, 2019-01-14)">
  <defs
     id="defs2" />
  <sodipodi:namedview
     id="base"
     pagecolor="#ffffff"
     bordercolor="#666666"
     borderopacity="1.0"
     inkscape:pageopacity="0.0"
     inkscape:pageshadow="2"
     inkscape:zoom="1.4683613"
     inkscape:cx="327.496"
     inkscape:cy="729.09373"
     inkscape:document-units="mm"
     inkscape:current-layer="layer1"
     showgrid="false"
     inkscape:window-width="1920"
     inkscape:window-height="1137"
     inkscape:window-x="-8"
     inkscape:window-y="-8"
     inkscape:window-maximized="1" />
  <metadata
     id="metadata5">
    <rdf:RDF>
      <cc:Work
         rdf:about="">
        <dc:format>image/svg+xml</dc:format>
        <dc:type
           rdf:resource="http://purl.org/dc/dcmitype/StillImage" />
      </cc:Work>
    </rdf:RDF>
  </metadata>
  <g
     inkscape:label="Layer 1"
     inkscape:groupmode="layer"
     id="layer1">
    <flowRoot
       xml:space="preserve"
       id="flowRoot3717"
       style="fill:black;fill-opacity:1;stroke:none;font-family:sans-serif;font-style:normal;font-weight:normal;font-size:40px;line-height:1.25;letter-spacing:0px;word-spacing:0px"><flowRegion
         id="flowRegion3719"><rect
           id="rect3721"
           width="92.428955"
           height="47.982246"
           x="357.08893"
           y="286.61844" /></flowRegion><flowPara
         id="flowPara3723"></flowPara></flowRoot>    <flowRoot
       xml:space="preserve"
       id="flowRoot3725"
       style="fill:black;fill-opacity:1;stroke:none;font-family:sans-serif;font-style:normal;font-weight:normal;font-size:40px;line-height:1.25;letter-spacing:0px;word-spacing:0px"><flowRegion
         id="flowRegion3727"><rect
           id="rect3729"
           width="34.850262"
           height="71.720833"
           x="351.02802"
           y="319.44843" /></flowRegion><flowPara
         id="flowPara3731"></flowPara></flowRoot>    <rect
       id="rect3737"
       width="73.490196"
       height="1.3096544"
       x="73.458206"
       y="122.54573"
       style="stroke-width:0.21920273" />
    <path
       style="stroke-width:0.08191542"
       d="m 87.76363,91.248061 c -1.647648,0.07638 -2.936507,0.975883 -4.420579,1.417348 -1.684515,0.622441 -3.581188,0.876195 -5.218554,1.573445 -1.151901,0.646614 -2.131415,1.456899 -3.100031,2.250861 -0.529251,0.603778 -1.021471,1.259405 -1.268103,1.961267 -0.03895,0.476542 -0.179234,1.140453 0.550723,1.369461 0.487764,-0.0513 0.644477,-0.538154 0.8988,-0.801511 0.376856,-0.487507 0.741312,-1.197137 1.625962,-1.219534 2.975904,-0.459648 6.057125,-0.833527 9.083609,-0.498742 2.564656,0.326976 5.195184,0.821706 7.804989,0.495968 0.854477,-0.191621 1.34807,-0.955873 2.323777,-0.903033 1.957774,-0.09028 3.894651,0.174048 5.842267,0.281447 1.11086,0.003 2.24985,0.10448 3.3434,-0.06703 0.92112,-0.358079 1.94167,-0.50322 2.97397,-0.456362 1.32709,-0.03142 2.67699,0.147468 3.99053,-0.02865 0.90571,-0.298128 1.47408,-1.101339 1.20794,-1.833531 -0.2224,-0.735505 -0.48846,-1.472883 -0.84454,-2.175134 -0.85328,-1.071824 -2.90474,-1.46907 -4.3196,-0.784868 -1.51836,0.580868 -3.28823,0.295302 -4.926,0.306481 -1.62004,-0.083 -3.25306,0.01915 -4.805773,0.388929 -1.54178,0.26866 -3.104145,0.497761 -4.689264,0.563651 -1.558358,-1.219194 -3.82711,-1.838648 -6.053523,-1.840466 z"
       id="path3836"
       inkscape:connector-curvature="0" />
    <text
       xml:space="preserve"
       style="font-style:normal;font-weight:normal;font-size:10.58333302px;line-height:1.25;font-family:sans-serif;letter-spacing:0px;word-spacing:0px;fill:#000000;fill-opacity:1;stroke:none;stroke-width:0.26458332"
       x="78.844505"
       y="131.49335"
       id="text4016"><tspan
         sodipodi:role="line"
         id="tspan4014"
         x="78.844505"
         y="141.14885"
         style="stroke-width:0.26458332" /></text>
    <rect
       id="rect3737-0"
       width="73.490204"
       height="1.3096544"
       x="67.009361"
       y="125.15976"
       style="stroke-width:0.21920273" />
    <rect
       id="rect4170"
       width="0.64542234"
       height="4.4674215"
       x="141.82352"
       y="37.706337"
       style="stroke-width:0.19657601"
       transform="matrix(0.73039033,0.68302998,-0.72826668,0.68529383,0,0)" />
    <rect
       id="rect4170-6"
       width="0.60780752"
       height="4.2075906"
       x="143.5378"
       y="32.383381"
       style="stroke-width:0.1851313"
       transform="matrix(0.71646255,0.69762555,-0.71428984,0.69985,0,0)" />
    <rect
       id="rect4170-9"
       width="0.64542234"
       height="4.4674215"
       x="146.98657"
       y="32.608234"
       style="stroke-width:0.19657601"
       transform="matrix(0.73039034,0.68302998,-0.72826669,0.68529383,0,0)" />
    <rect
       id="rect4170-9-2"
       width="0.64542234"
       height="4.4674215"
       x="149.67058"
       y="29.893051"
       style="stroke-width:0.19657601"
       transform="matrix(0.73039034,0.68302998,-0.72826669,0.68529383,0,0)" />
    <rect
       id="rect4170-1"
       width="0.64542234"
       height="4.4674215"
       x="152.41553"
       y="27.12529"
       style="stroke-width:0.19657601"
       transform="matrix(0.73039034,0.68302998,-0.72826669,0.68529383,0,0)" />
    <rect
       id="rect4170-6-0"
       width="0.60780752"
       height="4.2075906"
       x="154.33629"
       y="21.595749"
       style="stroke-width:0.1851313"
       transform="matrix(0.71646256,0.69762555,-0.71428983,0.69985001,0,0)" />
    <rect
       id="rect4170-9-8"
       width="0.64542234"
       height="4.4674215"
       x="157.57858"
       y="22.027187"
       style="stroke-width:0.19657601"
       transform="matrix(0.73039034,0.68302998,-0.72826669,0.68529383,0,0)" />
    <rect
       id="rect4170-9-2-2"
       width="0.64542234"
       height="4.4674215"
       x="160.26259"
       y="19.312006"
       style="stroke-width:0.19657601"
       transform="matrix(0.73039034,0.68302998,-0.72826669,0.68529383,0,0)" />
    <rect
       id="rect4170-94"
       width="0.64542234"
       height="4.4674215"
       x="162.70534"
       y="16.926548"
       style="stroke-width:0.19657601"
       transform="matrix(0.73039034,0.68302998,-0.72826669,0.68529383,0,0)" />
    <rect
       id="rect4170-6-9"
       width="0.60780752"
       height="4.2075906"
       x="164.82491"
       y="11.196302"
       style="stroke-width:0.1851313"
       transform="matrix(0.71646256,0.69762555,-0.71428983,0.69985001,0,0)" />
    <rect
       id="rect4170-9-4"
       width="0.64542234"
       height="4.4674215"
       x="167.86839"
       y="11.828437"
       style="stroke-width:0.19657601"
       transform="matrix(0.73039034,0.68302998,-0.72826669,0.68529383,0,0)" />
    <rect
       id="rect4170-9-2-21"
       width="0.64542234"
       height="4.4674215"
       x="170.5524"
       y="9.1132469"
       style="stroke-width:0.19657601"
       transform="matrix(0.73039034,0.68302998,-0.72826669,0.68529383,0,0)" />
    <rect
       id="rect4170-1-2"
       width="0.64542234"
       height="4.4674215"
       x="173.29735"
       y="6.3454885"
       style="stroke-width:0.19657601"
       transform="matrix(0.73039034,0.68302998,-0.72826669,0.68529383,0,0)" />
    <rect
       id="rect4170-6-0-2"
       width="0.60780752"
       height="4.2075906"
       x="175.6234"
       y="0.40867481"
       style="stroke-width:0.1851313"
       transform="matrix(0.71646256,0.69762555,-0.71428983,0.69985001,0,0)" />
    <rect
       id="rect4170-9-8-9"
       width="0.64542234"
       height="4.4674215"
       x="178.4604"
       y="1.2473912"
       style="stroke-width:0.19657601"
       transform="matrix(0.73039034,0.68302998,-0.72826669,0.68529383,0,0)" />
    <rect
       id="rect4170-9-2-2-8"
       width="0.64542234"
       height="4.4674215"
       x="181.14441"
       y="-1.4677907"
       style="stroke-width:0.19657601"
       transform="matrix(0.73039034,0.68302998,-0.72826669,0.68529383,0,0)" />
    <rect
       id="rect4170-6-0-2-8"
       width="0.60780752"
       height="4.2075906"
       x="183.2868"
       y="-7.2426343"
       style="stroke-width:0.1851313"
       transform="matrix(0.71646256,0.69762555,-0.71428983,0.69985001,0,0)" />
    <rect
       id="rect4170-9-8-9-8"
       width="0.64542234"
       height="4.4674215"
       x="185.97742"
       y="-6.2573233"
       style="stroke-width:0.19657601"
       transform="matrix(0.73039034,0.68302998,-0.72826669,0.68529383,0,0)" />
    <path
       style="stroke-width:0.09009476"
       d="m 72.741017,99.933072 c -1.073065,0.01934 -2.188495,-0.02241 -3.237076,0.0586 0.317238,0.686878 0.818978,1.321928 1.065125,2.020618 -1.433454,0.74231 -2.521095,2.02979 -3.216677,3.47488 -1.254469,2.66359 -1.353884,5.70782 -1.181944,8.59869 0.242628,2.87581 0.988941,6.03436 3.351231,7.92286 2.148041,1.62372 5.291045,1.78074 7.633105,0.4762 2.345549,-1.38785 3.467994,-4.1489 3.859548,-6.73578 0.427212,-3.12246 0.401892,-6.40154 -0.648256,-9.40363 -0.664622,-1.83461 -1.928061,-3.49951 -3.714204,-4.35662 -0.422908,-0.23095 0.236278,-0.61341 0.284088,-0.89375 0.202853,-0.36356 0.533501,-0.76551 0.652582,-1.119832 -1.614644,-0.05555 -3.232021,-0.03833 -4.847522,-0.04223 z m 0.881592,6.239418 c 1.239856,-0.0119 1.952898,1.18954 2.205035,2.26222 0.592214,2.4239 0.490712,4.97263 0.153969,7.42719 -0.148122,1.20428 -0.917829,2.63127 -2.263278,2.70548 -1.224706,0.11341 -2.097619,-1.02171 -2.306568,-2.11864 -0.380545,-2.01811 -0.211416,-4.09299 -0.216956,-6.13527 0.04894,-1.35385 0.27885,-2.93306 1.407017,-3.82741 0.296788,-0.20735 0.658135,-0.32184 1.020781,-0.31357 z"
       id="path4476"
       inkscape:connector-curvature="0" />
    <path
       style="stroke-width:0.09009476"
       d="m 89.012098,110.03688 c -1.326753,5.3e-4 -2.469155,0.89575 -3.212091,1.91223 -0.122439,-0.48525 -0.07233,-1.01857 -0.126871,-1.52105 -1.276342,-0.0162 -2.552684,-0.0324 -3.829029,-0.0486 0,4.08547 0,8.17093 0,12.2564 1.29136,0 2.582717,0 3.874077,0 0.0369,-2.6547 -0.08182,-5.31589 0.08182,-7.96634 -0.03008,-1.11641 1.844516,-1.27562 2.019741,-0.205 0.225632,2.33057 0.08989,4.68322 0.153139,7.02257 0.06889,0.49763 -0.265878,1.4017 0.548441,1.14877 1.110522,0 2.221048,0 3.33157,0 -0.05625,-3.42104 0.0429,-6.84756 -0.130567,-10.26499 -0.02101,-1.06282 -0.935275,-1.90984 -1.8758,-2.2478 -0.271039,-0.0748 -0.554321,-0.0943 -0.834433,-0.0862 z"
       id="path4478"
       inkscape:connector-curvature="0" />
    <path
       style="stroke-width:0.09009476"
       d="m 92.205005,107.00446 c 0,0.67571 0,1.35142 0,2.02713 0.900949,0 1.801898,0 2.702843,0 0,4.5648 0,9.1296 0,13.6944 1.381454,0 2.762907,0 4.14436,0 0,-4.5648 0,-9.1296 0,-13.6944 0.930981,0 1.861962,0 2.792942,0 0,-1.35142 0,-2.70285 0,-4.05427 -3.213384,0 -6.426764,0 -9.640145,0 0,0.67571 0,1.35142 0,2.02714 z"
       id="path4480"
       inkscape:connector-curvature="0" />
    <path
       style="stroke-width:0.09009476"
       d="m 109.92482,110.1488 c -1.35127,0.13324 -2.18021,1.39738 -2.85418,2.43748 0,-0.70439 0,-1.40878 0,-2.11318 -1.23129,0 -2.46259,0 -3.69388,0 0,4.0843 0,8.1686 0,12.25289 1.29136,0 2.58271,0 3.87407,0 0.0504,-2.40563 -0.11676,-4.82523 0.13198,-7.22148 0.12338,-0.97041 1.06074,-1.67781 2.02906,-1.54567 0.39754,-0.11554 1.29714,0.29776 1.26256,-0.25095 0,-1.16155 0,-2.3231 0,-3.48466 -0.24871,-0.0329 -0.49705,-0.0923 -0.74961,-0.0744 z"
       id="path4482"
       inkscape:connector-curvature="0" />
    <path
       style="stroke-width:0.09009476"
       d="m 115.78942,110.12522 c -1.71718,-0.0419 -2.88805,1.54587 -3.32382,3.04474 -0.60214,2.019 -0.54779,4.20168 -0.15961,6.25634 0.36713,1.5574 1.26158,3.37673 3.00146,3.67749 0.97906,0.15933 1.97932,-0.21851 2.60494,-0.99095 0.31107,-0.22428 0.71621,-0.9424 0.87057,-0.95348 0,0.52221 0,1.04442 0,1.56663 1.29136,0 2.58272,0 3.87408,0 0,-4.08547 0,-8.17094 0,-12.25641 -1.30638,0.0162 -2.61275,0.0324 -3.91913,0.0486 -0.10892,0.32804 0.0908,1.65036 -0.25691,1.20915 -0.61879,-0.90467 -1.52323,-1.67968 -2.69158,-1.60208 z m 1.59531,3.41339 c 1.06102,0.10447 1.22823,1.38894 1.32922,2.23781 0.0729,1.2091 0.11914,2.60151 -0.64682,3.61554 -0.63354,0.5694 -1.65292,0.17774 -1.90906,-0.59195 -0.41041,-1.19955 -0.40597,-2.53346 -0.20641,-3.77694 0.13069,-0.72474 0.56653,-1.57512 1.43307,-1.48446 z"
       id="path4484"
       inkscape:connector-curvature="0" />
    <path
       style="stroke-width:0.09009476"
       d="m 129.28534,110.09126 c -1.70155,0.009 -3.10639,1.28215 -3.71747,2.79716 -0.97177,2.12365 -0.89949,4.61845 -0.26043,6.82696 0.50907,1.78605 2.07115,3.45901 4.04758,3.37346 1.01855,0.004 2.00568,-0.35497 2.85206,-0.90711 -0.0234,-1.04684 0.0549,-2.10925 -0.0676,-3.14663 -0.77577,0.2776 -1.71879,0.60621 -2.43449,-0.0121 -1.08546,-0.8966 -1.09414,-2.53419 -0.74997,-3.78486 0.31755,-0.81598 1.1066,-1.54416 2.04196,-1.34036 0.42417,0.0257 0.81964,0.1884 1.21008,0.3421 0,-1.06272 0,-2.12544 0,-3.18816 -0.86476,-0.58453 -1.85863,-1.00947 -2.92175,-0.96042 z"
       id="path4486"
       inkscape:connector-curvature="0" />
    <path
       style="stroke-width:0.09009476"
       d="m 134.45945,113.35614 c 0,3.12328 0,6.24657 0,9.36985 1.29054,0 2.58107,0 3.87161,0 0.0159,-1.97827 0.0317,-3.95654 0.0475,-5.93481 0.95463,1.97832 1.90936,3.95659 2.86421,5.93481 1.49776,0 2.99553,0 4.4933,0 -1.31158,-2.20482 -2.64838,-4.40369 -3.90487,-6.63587 0.34706,-0.93619 1.09887,-1.68679 1.63096,-2.52961 0.69379,-1.00106 1.45813,-1.98528 2.10515,-3.0003 -1.45105,-0.18166 -2.94662,-0.036 -4.41393,-0.0802 -0.46818,0.17087 -0.61179,0.91412 -0.95047,1.31336 -0.60816,1.01288 -1.21624,2.02581 -1.82435,3.03872 -0.0155,-3.61529 -0.031,-7.23058 -0.0465,-10.84586 -1.29089,0 -2.58178,0 -3.87267,0 0,3.12328 0,6.24657 0,9.36985 z"
       id="path4488"
       inkscape:connector-curvature="0" />
  </g>
</svg>
